<svg xmlns="http://www.w3.org/2000/svg" width="21.539" height="18.973" viewBox="0 0 21.539 18.973">
  <g id="_6-Check" data-name="6-Check" transform="translate(0)">
    <path id="Path_294" data-name="Path 294" d="M41.824,78.131a.472.472,0,0,1-.347-.152L32.126,67.864a.472.472,0,0,1,.347-.793h4.5a.473.473,0,0,1,.356.162l3.126,3.6a17.906,17.906,0,0,1,2.139-3.389,31.82,31.82,0,0,1,10.25-8.226.472.472,0,0,1,.512.789,30.894,30.894,0,0,0-4.5,4.657,34.731,34.731,0,0,0-6.577,13.112.472.472,0,0,1-.459.359Z" transform="translate(-32 -59.158)" fill="#fff"/>
  </g>
</svg>
