<svg xmlns="http://www.w3.org/2000/svg" width="53.872" height="53.872" viewBox="0 0 53.872 53.872">
  <g id="_x31_6" transform="translate(-2 -2)">
    <path id="Path_84" data-name="Path 84" d="M34.708,42.4v7.7a3.852,3.852,0,0,1-3.848,3.848H7.772A3.852,3.852,0,0,1,3.924,50.1V7.772A3.852,3.852,0,0,1,7.772,3.924H30.86a3.852,3.852,0,0,1,3.848,3.848v7.7h1.924v-7.7A5.778,5.778,0,0,0,30.86,2H7.772A5.778,5.778,0,0,0,2,7.772V50.1a5.778,5.778,0,0,0,5.772,5.772H30.86A5.778,5.778,0,0,0,36.632,50.1V42.4Z" fill="#ff6aa9"/>
    <path id="Path_85" data-name="Path 85" d="M21.316,40.556a3.852,3.852,0,0,1-3.848-3.848V17.468a3.852,3.852,0,0,1,3.848-3.848h9.62v-7.7A1.924,1.924,0,0,0,29.012,4h-7.7a3.848,3.848,0,1,1-7.7,0h-7.7A1.924,1.924,0,0,0,4,5.924V48.252a1.924,1.924,0,0,0,1.924,1.924H29.012a1.924,1.924,0,0,0,1.924-1.924v-7.7Z" transform="translate(1.848 1.848)" fill="#ff6aa9"/>
    <path id="Path_86" data-name="Path 86" d="M44.708,10H13.924A1.924,1.924,0,0,0,12,11.924v19.24a1.924,1.924,0,0,0,1.924,1.924H44.708a1.924,1.924,0,0,0,1.924-1.924V11.924A1.924,1.924,0,0,0,44.708,10ZM23.544,27.316A1.924,1.924,0,0,1,21.62,29.24H17.772a1.924,1.924,0,0,1-1.924-1.924V25.392a1.924,1.924,0,0,1,1.924-1.924H21.62a1.924,1.924,0,0,1,1.924,1.924Zm13.468-6.734a3.84,3.84,0,0,1,.962,7.559v.137a.962.962,0,0,1-1.924,0v-.137a3.844,3.844,0,0,1-2.886-3.711.962.962,0,1,1,1.924,0,1.924,1.924,0,1,0,1.924-1.924,3.84,3.84,0,0,1-.962-7.559V14.81a.962.962,0,1,1,1.924,0v.137a3.844,3.844,0,0,1,2.886,3.711.962.962,0,1,1-1.924,0,1.924,1.924,0,1,0-1.924,1.924Z" transform="translate(9.24 7.392)" fill="#ff6aa9"/>
  </g>
</svg>
