<svg xmlns="http://www.w3.org/2000/svg" width="48.073" height="48.069" viewBox="0 0 48.073 48.069">
  <g id="Group_44" data-name="Group 44" transform="translate(-122 -282)">
    <path id="Path_72" data-name="Path 72" d="M153.228,283.265a24.053,24.053,0,0,0-22.323,3.691,57.575,57.575,0,0,1,2.005,8.612,11.515,11.515,0,0,1,.064,2.66,3.163,3.163,0,0,1-.493,1.44,3.4,3.4,0,0,1-2.167,1.465,1.239,1.239,0,0,0-.651.251,2.553,2.553,0,0,0-.469,1.358,10.414,10.414,0,0,0,.486,4.268,3.483,3.483,0,0,1-.647,2.979,9.346,9.346,0,0,1-3.049,2.3,24.764,24.764,0,0,1-3.26,1.387,24.06,24.06,0,0,0,22.417,16.389c.642-.713,1.76-2.023,2.759-3.226a3.347,3.347,0,0,0,.4-3.811,5.277,5.277,0,0,1-.857-2.567,1.644,1.644,0,0,1,.362-.97,1.669,1.669,0,0,1,.955-.561,7.827,7.827,0,0,0,4.629-3.077,5.163,5.163,0,0,1,2.007-2.043c.826-.381,2.007-.484,4.042-.031a29.634,29.634,0,0,1,7.465,3.226,23.913,23.913,0,0,0,2.649-10.973,24.206,24.206,0,0,0-.326-3.969,6.214,6.214,0,0,1-1.719.644,1.9,1.9,0,0,1-1.737-.46,1.93,1.93,0,0,1-.51-1.331c-.005-.165-.179-.227-.355-.323a8.21,8.21,0,0,0-1.7-.586,17.871,17.871,0,0,1-4.337-1.514,4.614,4.614,0,0,1-2.15-2.484,35.286,35.286,0,0,1-1.037-5.187,3.741,3.741,0,0,0-1.985-2.917c-1.319-.694-1.762-1.473-1.854-2.119a2.343,2.343,0,0,1,.625-1.839,4.57,4.57,0,0,1,.755-.687Z" transform="translate(0.519 0)" fill="#ff6aa9" fill-rule="evenodd"/>
    <path id="Path_73" data-name="Path 73" d="M155.726,304.648a27.566,27.566,0,0,0-7-3.046,4.843,4.843,0,0,0-2.948-.086c-.579.268-.874.807-1.3,1.446a9.6,9.6,0,0,1-5.647,3.784,1.678,1.678,0,0,0,.033.251c.012.051.027.1.045.16a4.425,4.425,0,0,0,.191.481c.1.223.225.452.362.69a5.061,5.061,0,0,1-.587,5.77c-.568.685-1.18,1.408-1.72,2.038a24.038,24.038,0,0,0,18.578-11.488Z" transform="translate(10.859 13.857)" fill="#ff6aa9" fill-rule="evenodd"/>
    <path id="Path_74" data-name="Path 74" d="M129.992,285.579a24.058,24.058,0,0,0-7.237,23.889,23.2,23.2,0,0,0,2.955-1.262,7.56,7.56,0,0,0,2.472-1.82,2.3,2.3,0,0,0,.2-2.2,9.8,9.8,0,0,1-.366-4.285,4.009,4.009,0,0,1,.946-2.292,2.316,2.316,0,0,1,1.023-.589,2.271,2.271,0,0,0,1.612-.913,1.458,1.458,0,0,0,.187-.656,9.838,9.838,0,0,0-.065-2.241,51.971,51.971,0,0,0-1.732-7.628Z" transform="translate(0 2.566)" fill="#ff6aa9" fill-rule="evenodd"/>
    <path id="Path_75" data-name="Path 75" d="M142.078,283.12a.642.642,0,0,1-.3.46,3.359,3.359,0,0,0-.867.687.65.65,0,0,0-.228.479c.041.292.359.529.955.843a5.307,5.307,0,0,1,2.867,4.091,33.688,33.688,0,0,0,.979,4.974,3.331,3.331,0,0,0,1.954,1.849,21.324,21.324,0,0,0,3.353,1.047,8.015,8.015,0,0,1,2.429.958,1.937,1.937,0,0,1,.894,1.54.959.959,0,0,0,.026.17,2.536,2.536,0,0,0,.513-.076,4.166,4.166,0,0,0,.5-.192A7.6,7.6,0,0,0,156,299.5a24.109,24.109,0,0,0-13.919-16.384Z" transform="translate(13.388 0.803)" fill="#ff6aa9" fill-rule="evenodd"/>
  </g>
</svg>
