<svg id="Group_48" data-name="Group 48" xmlns="http://www.w3.org/2000/svg" width="53.871" height="53.872" viewBox="0 0 53.871 53.872">
  <path id="Path_87" data-name="Path 87" d="M310.173,7.707a3.965,3.965,0,1,1,0,5.91v7.619h7.619a3.965,3.965,0,1,0,5.909,0h7.707V2.643A2.643,2.643,0,0,0,328.765,0H310.173Z" transform="translate(-277.537)" fill="#ff6aa9"/>
  <path id="Path_88" data-name="Path 88" d="M152.238,312.978a3.952,3.952,0,0,1,1.007-2.8h-7.619v7.619a3.965,3.965,0,1,0,0,5.909v7.707h18.592a2.644,2.644,0,0,0,2.643-2.643V310.174h-7.707a3.965,3.965,0,1,1-6.917,2.8Z" transform="translate(-124.39 -277.538)" fill="#ff6aa9"/>
  <path id="Path_89" data-name="Path 89" d="M23.879,115.046a3.95,3.95,0,0,0-2.643,1.011v-7.707H2.644A2.643,2.643,0,0,0,0,110.992v15.436H3.558a7.153,7.153,0,0,1,6.83-6.6c.091,0,.182-.005.273-.005a7.131,7.131,0,0,1,7.1,6.609h3.47v-4.462a3.965,3.965,0,1,0,2.643-6.92Z" transform="translate(0 -96.949)" fill="#ff6aa9"/>
  <path id="Path_90" data-name="Path 90" d="M13.462,269.486a7.066,7.066,0,0,1-1.986-5.212,7.153,7.153,0,0,1,6.6-6.83v-3.47H13.617a3.965,3.965,0,1,0-5.909,0H0v18.592a2.643,2.643,0,0,0,2.643,2.644H18.079V271.65a7.162,7.162,0,0,1-4.617-2.164Z" transform="translate(0 -221.337)" fill="#ff6aa9"/>
</svg>
