<svg xmlns="http://www.w3.org/2000/svg" width="45.86" height="53.872" viewBox="0 0 45.86 53.872">
  <g id="Group_47" data-name="Group 47" transform="translate(-45.509)">
    <g id="Group_46" data-name="Group 46" transform="translate(45.509)">
      <path id="Path_78" data-name="Path 78" d="M415.347,116.043l4.566,4.567a10.567,10.567,0,0,1,2.735,6.777l.726-1.218a11.837,11.837,0,0,0,1.96-6.392,11.539,11.539,0,0,0-3.514-6.957l-1.625-1.625,3.231-3.232-11.7-.418.418,11.7Z" transform="translate(-379.491 -98.078)" fill="#ff6aa9"/>
      <path id="Path_79" data-name="Path 79" d="M55.513,292.373l-4.566-4.565a10.57,10.57,0,0,1-2.735-6.778l-.726,1.217a11.841,11.841,0,0,0-1.96,6.391A11.53,11.53,0,0,0,49.04,295.6l1.625,1.625-3.232,3.231,11.7.418-.418-11.7Z" transform="translate(-45.509 -256.292)" fill="#ff6aa9"/>
      <path id="Path_80" data-name="Path 80" d="M180.555,101.044a1.058,1.058,0,0,0,.467.931,3.742,3.742,0,0,0,1.412.5v-2.8a2.755,2.755,0,0,0-1.47.474A1.138,1.138,0,0,0,180.555,101.044Z" transform="translate(-168.667 -90.902)" fill="#ff6aa9"/>
      <path id="Path_81" data-name="Path 81" d="M229.553,168.45a3.447,3.447,0,0,0-1.361-.473v2.736q1.8-.232,1.8-1.339A1.059,1.059,0,0,0,229.553,168.45Z" transform="translate(-212.111 -153.191)" fill="#ff6aa9"/>
      <path id="Path_82" data-name="Path 82" d="M91.58,13.155A13.155,13.155,0,1,0,78.424,26.311,13.156,13.156,0,0,0,91.58,13.155Zm-8.266,5.9a6.954,6.954,0,0,1-3.7,1.324v1.5H77.3V20.448a20.069,20.069,0,0,1-2.686-.254,8.48,8.48,0,0,1-2.088-.59V16.751q.567.2,1.107.357c.358.1.728.189,1.106.262s.777.131,1.193.175.874.07,1.369.08V14.437a17.9,17.9,0,0,1-1.82-.357,5.55,5.55,0,0,1-1.623-.677,3.57,3.57,0,0,1-1.173-1.194,3.664,3.664,0,0,1-.451-1.92,4.009,4.009,0,0,1,.349-1.711,3.708,3.708,0,0,1,1-1.3A5.182,5.182,0,0,1,75.178,6.4,9.423,9.423,0,0,1,77.3,5.937v-1.5H79.61V5.891a20.118,20.118,0,0,1,2.161.241,12.111,12.111,0,0,1,2.016.5V9.517A15.922,15.922,0,0,0,79.61,8.7v3.232a17.572,17.572,0,0,1,1.812.385,5.581,5.581,0,0,1,1.6.7,3.632,3.632,0,0,1,1.149,1.2,3.671,3.671,0,0,1,.444,1.907A3.569,3.569,0,0,1,83.314,19.051Z" transform="translate(-63.53)" fill="#ff6aa9"/>
      <path id="Path_83" data-name="Path 83" d="M263.873,313.1a13.155,13.155,0,1,0,13.155,13.155A13.155,13.155,0,0,0,263.873,313.1Zm5.3,20.623a5.692,5.692,0,0,1-.75.24c-.287.073-.585.133-.9.182s-.629.085-.953.109-.638.036-.939.036q-6.011,0-7.336-4.774h-1.878v-2.343h1.514c-.01-.136-.017-.27-.022-.4s-.007-.264-.007-.4a8.993,8.993,0,0,1,.044-.9h-1.528V323.12h1.922a6.84,6.84,0,0,1,2.576-3.763,7.981,7.981,0,0,1,4.745-1.318c.292,0,.6.015.925.044s.638.068.939.117a7.852,7.852,0,0,1,.844.182,4.922,4.922,0,0,1,.655.226v2.911a10.951,10.951,0,0,0-1.5-.393,8.7,8.7,0,0,0-1.645-.16A3.87,3.87,0,0,0,262,323.119h4.92v2.344h-5.458a7.333,7.333,0,0,0-.044.83c0,.154.005.315.014.48s.02.3.03.393h4.367v2.343H261.97a2.874,2.874,0,0,0,1.442,1.42,6.289,6.289,0,0,0,2.533.429,7.812,7.812,0,0,0,.793-.043c.287-.029.575-.068.866-.117s.573-.106.845-.175a7.233,7.233,0,0,0,.728-.218v2.913Z" transform="translate(-232.654 -285.534)" fill="#ff6aa9"/>
    </g>
  </g>
</svg>
