<svg xmlns="http://www.w3.org/2000/svg" width="36.052" height="48.069" viewBox="0 0 36.052 48.069">
  <g id="Group_43" data-name="Group 43" transform="translate(-64)">
    <g id="Group_42" data-name="Group 42" transform="translate(64)">
      <path id="Path_71" data-name="Path 71" d="M99.051,18.026h-3V14.02a14.02,14.02,0,1,0-28.04,0v4.006H65a1,1,0,0,0-1,1V44.064a4.01,4.01,0,0,0,4.006,4.006h28.04a4.01,4.01,0,0,0,4.006-4.006V19.027A1,1,0,0,0,99.051,18.026ZM85.025,38.946a1,1,0,0,1-1,1.112H80.023a1,1,0,0,1-1-1.112l.632-5.681a3.962,3.962,0,0,1-1.639-3.221,4.006,4.006,0,1,1,8.012,0,3.962,3.962,0,0,1-1.639,3.221Zm5.013-20.92H74.014V14.02a8.012,8.012,0,1,1,16.023,0Z" transform="translate(-64)" fill="#ff6aa9"/>
    </g>
  </g>
</svg>
