<svg xmlns="http://www.w3.org/2000/svg" xmlns:xlink="http://www.w3.org/1999/xlink" width="154" height="154" viewBox="0 0 154 154">
  <defs>
    <clipPath id="clip-path">
      <circle id="Mask" cx="73.364" cy="73.364" r="73.364" fill="#ff6aa9"/>
    </clipPath>
    <filter id="Ellipse_11" x="0" y="0" width="154" height="154" filterUnits="userSpaceOnUse">
      <feOffset dy="3" input="SourceAlpha"/>
      <feGaussianBlur stdDeviation="5" result="blur"/>
      <feFlood flood-opacity="0.161"/>
      <feComposite operator="in" in2="blur"/>
      <feComposite in="SourceGraphic"/>
    </filter>
  </defs>
  <g id="Group_538" data-name="Group 538" transform="translate(-1099.76 -4280.255)">
    <g id="Image" transform="translate(1103.396 4280.255)">
      <circle id="Mask-2" data-name="Mask" cx="73.364" cy="73.364" r="73.364" transform="translate(0)" fill="#ff6aa9"/>
    </g>
    <g transform="matrix(1, 0, 0, 1, 1099.76, 4280.25)" filter="url(#Ellipse_11)">
      <circle id="Ellipse_11-2" data-name="Ellipse 11" cx="62" cy="62" r="62" transform="translate(15 12)" fill="#fff"/>
    </g>
    <g id="Layer_2" data-name="Layer 2" transform="translate(1145.75 4322.75)">
      <path id="Path_339" data-name="Path 339" d="M17.6,16.041V29.994H2.25V16.041A2.791,2.791,0,0,1,5.041,13.25h9.767A2.791,2.791,0,0,1,17.6,16.041Z" transform="translate(1.791 21.488)" fill="#ff6aa9"/>
      <path id="Path_340" data-name="Path 340" d="M24.6,14.041V33.576H9.25V14.041a2.791,2.791,0,0,1,2.791-2.791h9.767A2.791,2.791,0,0,1,24.6,14.041Z" transform="translate(14.326 17.907)" fill="#ff6aa9"/>
      <path id="Path_341" data-name="Path 341" d="M31.6,11.041V38.948H16.25V11.041A2.791,2.791,0,0,1,19.041,8.25h9.767A2.791,2.791,0,0,1,31.6,11.041Z" transform="translate(26.86 12.535)" fill="#ff6aa9"/>
      <path id="Path_342" data-name="Path 342" d="M27.506,16.6a2.094,2.094,0,0,1-2.093-2.093V5.436h-9.07a2.093,2.093,0,1,1,0-4.186H27.506A2.094,2.094,0,0,1,29.6,3.343V14.506A2.094,2.094,0,0,1,27.506,16.6Z" transform="translate(23.279 0)" fill="#ff6aa9"/>
      <path id="Path_343" data-name="Path 343" d="M5.343,30.552a2.093,2.093,0,0,1-1.409-3.641L19.283,12.958a2.09,2.09,0,0,1,2.75-.06l6.9,5.753L45.724,1.863a2.093,2.093,0,1,1,2.96,2.96l-18.14,18.14a2.091,2.091,0,0,1-2.821.128l-6.971-5.81-14,12.727a2.088,2.088,0,0,1-1.409.545Z" transform="translate(3.581 0)" fill="#ff6aa9"/>
      <rect id="Rectangle_362" data-name="Rectangle 362" width="60" height="6.977" rx="1" transform="translate(1.25 54.273)" fill="#ff6aa9"/>
    </g>
  </g>
</svg>
