<svg xmlns="http://www.w3.org/2000/svg" xmlns:xlink="http://www.w3.org/1999/xlink" width="154" height="154" viewBox="0 0 154 154">
  <defs>
    <clipPath id="clip-path">
      <circle id="Mask" cx="73.364" cy="73.364" r="73.364" fill="#ff6aa9"/>
    </clipPath>
    <filter id="Ellipse_10" x="0" y="0" width="154" height="154" filterUnits="userSpaceOnUse">
      <feOffset dy="3" input="SourceAlpha"/>
      <feGaussianBlur stdDeviation="5" result="blur"/>
      <feFlood flood-opacity="0.161"/>
      <feComposite operator="in" in2="blur"/>
      <feComposite in="SourceGraphic"/>
    </filter>
  </defs>
  <g id="Group_537" data-name="Group 537" transform="translate(-671.115 -4280.255)">
    <g id="Image" transform="translate(674.75 4280.255)">
      <circle id="Mask-2" data-name="Mask" cx="73.364" cy="73.364" r="73.364" transform="translate(0)" fill="#ff6aa9"/>
    </g>
    <g transform="matrix(1, 0, 0, 1, 671.12, 4280.25)" filter="url(#Ellipse_10)">
      <circle id="Ellipse_10-2" data-name="Ellipse 10" cx="62" cy="62" r="62" transform="translate(15 12)" fill="#fff"/>
    </g>
    <g id="marketing-agent" transform="translate(721 4319)">
      <ellipse id="Ellipse_13" data-name="Ellipse 13" cx="15.346" cy="14.894" rx="15.346" ry="14.894" transform="translate(12.735)" fill="#ff6aa9"/>
      <path id="Path_338" data-name="Path 338" d="M37.9,12.8,35.8,31.4,31,17l3-3.9c.6-.9-.3-2.1-1.5-2.1h-6A1.6,1.6,0,0,0,25,13.1L27.7,17,22.9,31.4,20.5,11.9A27.363,27.363,0,0,0,1,38H55A27.245,27.245,0,0,0,37.9,12.8ZM16,32H10V27.5A1.417,1.417,0,0,1,11.5,26h3A1.417,1.417,0,0,1,16,27.5Z" transform="translate(0 22)" fill="#ff6aa9"/>
    </g>
  </g>
</svg>
