<svg xmlns="http://www.w3.org/2000/svg" width="54" height="60" viewBox="0 0 54 60">
  <g id="marketing-agent" transform="translate(-1)">
    <ellipse id="Ellipse_13" data-name="Ellipse 13" cx="15.346" cy="14.894" rx="15.346" ry="14.894" transform="translate(12.735)" fill="#ff6aa9"/>
    <path id="Path_338" data-name="Path 338" d="M37.9,12.8,35.8,31.4,31,17l3-3.9c.6-.9-.3-2.1-1.5-2.1h-6A1.6,1.6,0,0,0,25,13.1L27.7,17,22.9,31.4,20.5,11.9A27.363,27.363,0,0,0,1,38H55A27.245,27.245,0,0,0,37.9,12.8ZM16,32H10V27.5A1.417,1.417,0,0,1,11.5,26h3A1.417,1.417,0,0,1,16,27.5Z" transform="translate(0 22)" fill="#ff6aa9"/>
  </g>
</svg>
