<svg id="jigsaw" xmlns="http://www.w3.org/2000/svg" width="60" height="60" viewBox="0 0 60 60">
  <path id="Path_334" data-name="Path 334" d="M310.173,8.584a4.416,4.416,0,1,1,0,6.582v8.486h8.486a4.416,4.416,0,1,0,6.582,0h8.584V2.944A2.944,2.944,0,0,0,330.88,0H310.173Z" transform="translate(-273.825)" fill="#ff6aa9"/>
  <path id="Path_335" data-name="Path 335" d="M153.742,313.3a4.4,4.4,0,0,1,1.122-3.123h-8.486v8.486a4.416,4.416,0,1,0,0,6.582v8.584h20.707a2.944,2.944,0,0,0,2.944-2.944V310.174h-8.584a4.416,4.416,0,1,1-7.7,3.123Z" transform="translate(-122.726 -273.826)" fill="#ff6aa9"/>
  <path id="Path_336" data-name="Path 336" d="M26.6,115.807a4.4,4.4,0,0,0-2.944,1.125v-8.584H2.944A2.944,2.944,0,0,0,0,111.293v17.192H3.963a7.966,7.966,0,0,1,7.607-7.355c.1,0,.2-.006.3-.006a7.942,7.942,0,0,1,7.911,7.36h3.865v-4.97a4.416,4.416,0,1,0,2.944-7.707Z" transform="translate(0 -95.652)" fill="#ff6aa9"/>
  <path id="Path_337" data-name="Path 337" d="M14.993,272a7.869,7.869,0,0,1-2.212-5.805,7.967,7.967,0,0,1,7.355-7.607v-3.865h-4.97a4.416,4.416,0,1,0-6.582,0H0v20.707a2.944,2.944,0,0,0,2.944,2.944H20.136v-3.964A7.977,7.977,0,0,1,14.993,272Z" transform="translate(0 -218.377)" fill="#ff6aa9"/>
</svg>
