<svg id="Group_8" data-name="Group 8" xmlns="http://www.w3.org/2000/svg" width="47.03" height="46.266" viewBox="0 0 47.03 46.266">
  <path id="Path_46" data-name="Path 46" d="M118,144.315a6.894,6.894,0,1,1-6.893-6.782,6.934,6.934,0,0,1,3.8,1.127l4-3.933c-.09-.065-.181-.129-.273-.193a14.285,14.285,0,0,0-8.083-2.806q-.365,0-.728.024a12.734,12.734,0,0,0-8.407,3.953,12.448,12.448,0,0,0-3.443,8.61,12.734,12.734,0,0,0,3.849,9.137,13.286,13.286,0,0,0,18.577,0,12.734,12.734,0,0,0,3.848-9.137,11.312,11.312,0,0,0-3.271-7.789l-4.118,4.051A6.662,6.662,0,0,1,118,144.315Z" transform="translate(-88.971 -119.826)" fill="#e7439a"/>
  <path id="Path_47" data-name="Path 47" d="M199.106,229.076l2.759-2.714a4.168,4.168,0,0,0-1.784-.4,4.071,4.071,0,1,0,4.138,4.071,3.992,3.992,0,0,0-.4-1.755l-2.758,2.714Z" transform="translate(-177.944 -205.545)" fill="#e7439a"/>
  <path id="Path_48" data-name="Path 48" d="M35.666,40.408l-1.714,1.687A13.98,13.98,0,0,1,38.028,51.8a15.4,15.4,0,0,1-4.656,11.054,16.074,16.074,0,0,1-22.474,0A15.4,15.4,0,0,1,6.243,51.8a15.125,15.125,0,0,1,4.185-10.46,15.5,15.5,0,0,1,10.235-4.807A16.619,16.619,0,0,1,31.239,39.8c.226.156.446.316.663.479l1.816-1.787.291-5.078A22.435,22.435,0,0,0,6.484,36.4a21.527,21.527,0,0,0,0,30.8,22.4,22.4,0,0,0,31.3,0,21.525,21.525,0,0,0,3.039-27.078Z" transform="translate(0 -27.312)" fill="#e7439a"/>
  <path id="Path_49" data-name="Path 49" d="M397.646,10.333l5.631-.312,4.873-4.794L402.837,0l-4.874,4.794Z" transform="translate(-361.12 0)" fill="#e7439a"/>
</svg>
