<svg id="Group_7" data-name="Group 7" xmlns="http://www.w3.org/2000/svg" width="49.842" height="32.5" viewBox="0 0 49.842 32.5">
  <path id="Path_44" data-name="Path 44" d="M48.772,16.131,42.584,11.7,38.972,9.12a21.311,21.311,0,0,0-24.8,0L10.559,11.7l-6.188,4.43a6.443,6.443,0,0,0,0,10.518l9.8,7.012a21.311,21.311,0,0,0,24.8,0l9.8-7.012a6.443,6.443,0,0,0,0-10.518Zm-2.143,7.651-9.8,7.012a17.568,17.568,0,0,1-20.515,0l-9.8-7.012a2.912,2.912,0,0,1,0-4.785l3.949-2.819,5.851-4.193a17.624,17.624,0,0,1,20.515,0l5.851,4.193L46.629,19a2.912,2.912,0,0,1,0,4.785Z" transform="translate(-1.65 -5.14)" fill="#e7439a"/>
  <path id="Path_45" data-name="Path 45" d="M37.516,11.7,33.9,9.12a21.311,21.311,0,0,0-24.8,0L5.491,11.7a13.057,13.057,0,0,0-.241,2.582,12.325,12.325,0,0,0,.144,1.9A16.128,16.128,0,0,0,21.5,30.274,16.128,16.128,0,0,0,37.612,16.179a12.325,12.325,0,0,0,.144-1.9,13.057,13.057,0,0,0-.241-2.582ZM21.5,23.167a8.96,8.96,0,0,1-9.03-8.883,1.806,1.806,0,0,1,3.612,0,5.382,5.382,0,0,0,5.418,5.33,1.777,1.777,0,1,1,0,3.553Z" transform="translate(3.418 -5.14)" fill="#e7439a"/>
</svg>
