<svg id="Currency" xmlns="http://www.w3.org/2000/svg" width="80.141" height="80.141" viewBox="0 0 80.141 80.141">
  <path id="Path_263" data-name="Path 263" d="M25.51,14.985a46.242,46.242,0,0,0,8.5.789,45.775,45.775,0,0,0,11.232-1.365A46.926,46.926,0,0,0,37.569,2.175C36.392,2.063,35.215,2,34.013,2s-2.379.063-3.556.175a45.727,45.727,0,0,0-6.436,9.617A17.25,17.25,0,0,1,25.51,14.985Z" transform="translate(6.058 0.504)" fill="#ff6aa9"/>
  <path id="Path_264" data-name="Path 264" d="M46.918,25.8H64.9a37.878,37.878,0,0,0-2.817-6.624,12.192,12.192,0,0,1-2.968.363,12.55,12.55,0,0,1-11.52-7.626,32.382,32.382,0,0,1-3.944,1.615A63.326,63.326,0,0,1,46.918,25.8Z" transform="translate(11.008 3.004)" fill="#ff6aa9"/>
  <path id="Path_265" data-name="Path 265" d="M46.553,25a70.41,70.41,0,0,1,.56,8.765,70.41,70.41,0,0,1-.56,8.765h18.3a37.348,37.348,0,0,0,0-17.531Z" transform="translate(11.74 6.305)" fill="#ff6aa9"/>
  <path id="Path_266" data-name="Path 266" d="M45.35,46.5a13.781,13.781,0,0,1,7.075,11.933c.063.063.138.125.2.188A37.7,37.7,0,0,0,64.471,41H46.49C46.189,42.866,45.8,44.706,45.35,46.5Z" transform="translate(11.437 10.34)" fill="#ff6aa9"/>
  <path id="Path_267" data-name="Path 267" d="M51.557,33.765A67.2,67.2,0,0,0,50.981,25H24.61a17.68,17.68,0,0,1-5.5,5.1C19.038,31.311,19,32.538,19,33.765a67.2,67.2,0,0,0,.576,8.765H50.981A67.2,67.2,0,0,0,51.557,33.765Z" transform="translate(4.792 6.305)" fill="#ff6aa9"/>
  <path id="Path_268" data-name="Path 268" d="M31.417,51.07a44.588,44.588,0,0,0-8.377,1.29A47.031,47.031,0,0,0,30.7,64.581c.977.088,1.941.15,2.93.163A13.768,13.768,0,0,1,31.417,51.07Z" transform="translate(5.811 12.88)" fill="#ff6aa9"/>
  <path id="Path_269" data-name="Path 269" d="M21.357,41H3.381a37.68,37.68,0,0,0,11.85,17.616,25.064,25.064,0,0,1,9.4-5.338A63.05,63.05,0,0,1,21.357,41Z" transform="translate(0.853 10.34)" fill="#ff6aa9"/>
  <path id="Path_270" data-name="Path 270" d="M14.446,57.222A37.377,37.377,0,0,0,29.212,63.65a50.768,50.768,0,0,1-6.424-10.979A23.229,23.229,0,0,0,14.446,57.222Z" transform="translate(3.643 13.284)" fill="#ff6aa9"/>
  <path id="Path_271" data-name="Path 271" d="M23.62,9.372a50.052,50.052,0,0,1,4.42-6.812A36.27,36.27,0,0,0,19.1,5.54,17.5,17.5,0,0,1,23.62,9.372Z" transform="translate(4.817 0.646)" fill="#ff6aa9"/>
  <path id="Path_272" data-name="Path 272" d="M33.547,51.043a13.779,13.779,0,0,1,15.94-5.572c.363-1.465.664-2.955.927-4.47H19.76a60.526,60.526,0,0,0,3.13,11.558A46.73,46.73,0,0,1,33.547,51.043Z" transform="translate(4.983 10.34)" fill="#ff6aa9"/>
  <path id="Path_273" data-name="Path 273" d="M20.783,33.216c0-.814.013-1.628.05-2.429a17.289,17.289,0,0,1-6.311,1.177A17.523,17.523,0,0,1,2.488,27.18,36.919,36.919,0,0,0,2,33.216a37.488,37.488,0,0,0,1.039,8.765H21.346A69.48,69.48,0,0,1,20.783,33.216Z" transform="translate(0.504 6.855)" fill="#ff6aa9"/>
  <path id="Path_274" data-name="Path 274" d="M48.316,11.839a13.186,13.186,0,0,1-.238-2.467,12.619,12.619,0,0,1,.351-2.943A36.507,36.507,0,0,0,37.76,2.56a50.865,50.865,0,0,1,6.424,10.994A28.2,28.2,0,0,0,48.316,11.839Z" transform="translate(9.523 0.646)" fill="#ff6aa9"/>
  <path id="Path_275" data-name="Path 275" d="M49.181,25.325A60.649,60.649,0,0,0,46.05,13.78a47.62,47.62,0,0,1-12.2,1.528,50,50,0,0,1-7.789-.6,18.133,18.133,0,0,1,.275,3.106,17.39,17.39,0,0,1-1.69,7.513Z" transform="translate(6.217 3.475)" fill="#ff6aa9"/>
  <path id="Path_276" data-name="Path 276" d="M15.026,35.053A15.026,15.026,0,1,0,0,20.026,15.043,15.043,0,0,0,15.026,35.053Zm.626-13.774H14.4a4.373,4.373,0,0,1-.626-8.7V11.261a1.252,1.252,0,0,1,2.5,0v1.252h2.5a1.252,1.252,0,0,1,0,2.5H14.4a1.878,1.878,0,0,0,0,3.757h1.252a4.373,4.373,0,0,1,.626,8.7v1.315a1.252,1.252,0,0,1-2.5,0V27.54h-2.5a1.252,1.252,0,0,1,0-2.5h4.383a1.878,1.878,0,0,0,0-3.757Z" transform="translate(0 1.261)" fill="#ff6aa9"/>
  <path id="Path_277" data-name="Path 277" d="M42.27,46A11.27,11.27,0,1,0,53.54,57.27,11.282,11.282,0,0,0,42.27,46Zm2.5,10.018a1.252,1.252,0,0,1,0,2.5H40a3.75,3.75,0,0,0,3.526,2.5h2.5a1.252,1.252,0,0,1,0,2.5h-2.5a6.271,6.271,0,0,1-6.134-5.009H36.009a1.252,1.252,0,0,1,0-2.5h1.379a6.271,6.271,0,0,1,6.134-5.009h2.5a1.252,1.252,0,0,1,0,2.5h-2.5A3.75,3.75,0,0,0,40,56.018Z" transform="translate(7.818 11.601)" fill="#ff6aa9"/>
  <path id="Path_278" data-name="Path 278" d="M58.018,20.035A10.018,10.018,0,1,0,48,10.018,10.029,10.029,0,0,0,58.018,20.035ZM53.376,4.123a1.252,1.252,0,0,1,1.771,0l2.871,2.871,2.871-2.871A1.252,1.252,0,0,1,62.66,5.894L59.788,8.765h.734a1.252,1.252,0,0,1,0,2.5H59.27v1.252h1.252a1.252,1.252,0,0,1,0,2.5H59.27a1.252,1.252,0,0,1-2.5,0H55.513a1.252,1.252,0,0,1,0-2.5h1.252V11.27H55.513a1.252,1.252,0,0,1,0-2.5h.734L53.376,5.894A1.252,1.252,0,0,1,53.376,4.123Z" transform="translate(12.105)" fill="#ff6aa9"/>
</svg>
