<svg xmlns="http://www.w3.org/2000/svg" width="80" height="80" viewBox="0 0 80 80">
  <g id="Group_372" data-name="Group 372" transform="translate(-2 -2)">
    <path id="Path_284" data-name="Path 284" d="M11.046,20.075l-2.5,8.575a2.825,2.825,0,0,0,.475,2.5A2.9,2.9,0,0,0,11.3,32.275h6.725a2.85,2.85,0,0,0,2.85-2.85V18H13.8a2.875,2.875,0,0,0-2.75,2.075Z" transform="translate(9.654 24)" fill="#ff6aa9" fill-rule="evenodd"/>
    <path id="Path_285" data-name="Path 285" d="M2,22H82V13.425A11.45,11.45,0,0,0,70.575,2H13.425A11.45,11.45,0,0,0,2,13.425ZM67.725,10.575a2.85,2.85,0,1,1-2.031.826A2.85,2.85,0,0,1,67.725,10.575Zm-11.45,0a2.85,2.85,0,1,1-2.85,2.85A2.85,2.85,0,0,1,56.275,10.575Zm-40,0h11.45a2.85,2.85,0,1,1,0,5.7H16.275a2.85,2.85,0,1,1,0-5.7Z" transform="translate(0 0)" fill="#ff6aa9" fill-rule="evenodd"/>
    <path id="Path_286" data-name="Path 286" d="M50,27.335H44.275a8.45,8.45,0,0,1-5.7-2.225,8.525,8.525,0,0,1-5.725,2.225h-5.7a8.525,8.525,0,0,1-5.725-2.225,8.45,8.45,0,0,1-5.7,2.225H10v20H50Z" transform="translate(12 34.665)" fill="#ff6aa9" fill-rule="evenodd"/>
    <path id="Path_287" data-name="Path 287" d="M29.695,18H22.57V29.425a2.85,2.85,0,0,0,2.85,2.85h6.725A2.9,2.9,0,0,0,34.42,31.15a2.825,2.825,0,0,0,.475-2.5l-2.5-8.575A2.875,2.875,0,0,0,29.695,18Z" transform="translate(30.855 24)" fill="#ff6aa9" fill-rule="evenodd"/>
    <path id="Path_288" data-name="Path 288" d="M15.71,29.425a2.875,2.875,0,0,0,2.875,2.85h5.7a2.875,2.875,0,0,0,2.875-2.85V18H15.71Z" transform="translate(20.565 24)" fill="#ff6aa9" fill-rule="evenodd"/>
    <path id="Path_289" data-name="Path 289" d="M2,12.29V55.14A11.45,11.45,0,0,0,13.425,66.565h2.85v-21.5a8.425,8.425,0,0,1-2.1-1.9,8.625,8.625,0,0,1-1.425-7.5l2.5-8.575a8.6,8.6,0,0,1,8.225-6.225H60.55a8.6,8.6,0,0,1,8.225,6.225l2.5,8.575a8.7,8.7,0,0,1-1.4,7.5,9,9,0,0,1-2.125,1.9v21.5H70.6A11.45,11.45,0,0,0,82,55.14V12.29Z" transform="translate(0 15.435)" fill="#ff6aa9" fill-rule="evenodd"/>
  </g>
</svg>
