<svg xmlns="http://www.w3.org/2000/svg" width="61.834" height="80" viewBox="0 0 61.834 80">
  <g id="Group_370" data-name="Group 370" transform="translate(-15.218 -5)">
    <path id="Path_279" data-name="Path 279" d="M76.566,71.411c-1.79-5.328-8.925-8.663-14.012-10.9-1.993-.873-7.51-2.354-8.173-4.863a5.192,5.192,0,0,1-.011-2.573,4.974,4.974,0,0,1-.94.093H50.115a4.794,4.794,0,1,1,0-9.588H53.43A4.781,4.781,0,0,1,56.4,44.612a21.331,21.331,0,0,0,3.516-.77,29.734,29.734,0,0,0,2.834-9.8c1.082-13.376-7.118-21.2-18.876-19.849-8.548.984-13.655,7.358-14.207,15.564A28.265,28.265,0,0,0,35.5,48.836c1.443,1.981,2.958,3.255,2.725,5.643-.27,2.823-3.289,3.61-5.448,4.477a62.372,62.372,0,0,0-6.615,3.308c-4.483,2.476-9.4,5.457-10.508,9.535-2.449,9.038,5.821,11.776,12.649,13.04a102.222,102.222,0,0,0,17.9,1.166c9.83,0,27.507-.394,30.357-7.783a12.306,12.306,0,0,0,0-6.812Z" transform="translate(0 -1.005)" fill="#ff6aa9"/>
    <path id="Path_280" data-name="Path 280" d="M55.945,46.016a2.5,2.5,0,0,0-2.1-1.14H50.534a2.5,2.5,0,1,0,0,4.994h3.315a2.477,2.477,0,0,0,2.2-1.35,22.414,22.414,0,0,0,11.462-3.86,4.117,4.117,0,0,0,2.241.662h.208A4.166,4.166,0,0,0,74.13,41.15V32.823a4.154,4.154,0,0,0-2.375-3.755,25.229,25.229,0,0,0-50.4,0,4.152,4.152,0,0,0-2.377,3.755V41.15a4.166,4.166,0,0,0,4.164,4.172h.211a4.167,4.167,0,0,0,4.166-4.172V32.823A4.158,4.158,0,0,0,25.2,29.1a21.385,21.385,0,0,1,42.71,0,4.16,4.16,0,0,0-2.316,3.726V41.15a4.19,4.19,0,0,0,.3,1.548,20.406,20.406,0,0,1-9.943,3.317Z" transform="translate(-0.417)" fill="#ff6aa9"/>
  </g>
</svg>
