<svg id="Group_373" data-name="Group 373" xmlns="http://www.w3.org/2000/svg" width="80" height="80" viewBox="0 0 80 80">
  <path id="Path_290" data-name="Path 290" d="M50.3,16.088,32.8,10.134a2.458,2.458,0,0,0-1.607,0L13.7,16.088A2.493,2.493,0,0,0,12,18.454V31.848c0,16.347,18.247,24.293,19.023,24.623a2.543,2.543,0,0,0,.977.2,2.486,2.486,0,0,0,.977-.2C33.753,56.138,52,48.194,52,31.848V18.455a2.493,2.493,0,0,0-1.7-2.367Zm-7.35,12.64L33.787,40.394a3.335,3.335,0,0,1-4.79.473l-5.833-5a3.332,3.332,0,0,1,4.337-5.06l3.193,2.737,7.017-8.93a3.332,3.332,0,0,1,5.243,4.113Z" transform="translate(28 23.332)" fill="#ff6aa9"/>
  <path id="Path_291" data-name="Path 291" d="M63.333,0H10a10,10,0,0,0,0,20H63.333a10,10,0,0,0,0-20ZM10,13.333A3.333,3.333,0,1,1,13.333,10,3.335,3.335,0,0,1,10,13.333Zm13.333,0A3.333,3.333,0,1,1,26.667,10,3.335,3.335,0,0,1,23.333,13.333Z" fill="#ff6aa9"/>
  <path id="Path_292" data-name="Path 292" d="M10,8a10,10,0,0,0,0,20H33.333V23.133a9.182,9.182,0,0,1,6.233-8.7L57.033,8.5A9.089,9.089,0,0,1,60,8Zm0,13.333A3.333,3.333,0,1,1,13.333,18,3.343,3.343,0,0,1,10,21.333Zm13.333,0A3.333,3.333,0,1,1,26.667,18,3.343,3.343,0,0,1,23.333,21.333Z" transform="translate(0 18.667)" fill="#ff6aa9"/>
  <path id="Path_293" data-name="Path 293" d="M33.333,17.833V16H10a10,10,0,1,0,0,20H39.9A29.073,29.073,0,0,1,33.333,17.833ZM10,29.333A3.333,3.333,0,1,1,13.333,26,3.343,3.343,0,0,1,10,29.333Zm13.333,0A3.333,3.333,0,1,1,26.667,26,3.343,3.343,0,0,1,23.333,29.333Z" transform="translate(0 37.333)" fill="#ff6aa9"/>
</svg>
