<svg xmlns="http://www.w3.org/2000/svg" width="80" height="80" viewBox="0 0 80 80">
  <g id="Group_367" data-name="Group 367" transform="translate(-1 -1)">
    <path id="Path_232" data-name="Path 232" d="M32.33,16.878V6.372a2.887,2.887,0,1,0-2.887,0V16.878Z" transform="translate(10.113)" fill="#ff6aa9"/>
    <path id="Path_233" data-name="Path 233" d="M24.629,24.628l-2.047,9.2h4.094Z" transform="translate(8.115 8.775)" fill="#ff6aa9"/>
    <path id="Path_234" data-name="Path 234" d="M51.1,56.661A2.877,2.877,0,0,0,48.618,58.1H43.887V48H41V58.1a2.9,2.9,0,0,0,2.887,2.887h4.732a2.882,2.882,0,1,0,2.486-4.33Z" transform="translate(14.701 17.122)" fill="#ff6aa9"/>
    <path id="Path_235" data-name="Path 235" d="M14,16.654V53.816a2.657,2.657,0,0,0,2.654,2.654H53.816a2.657,2.657,0,0,0,2.654-2.654V16.654A2.657,2.657,0,0,0,53.816,14H16.654A2.657,2.657,0,0,0,14,16.654Zm23.89,9.291a1.327,1.327,0,0,1,0-2.654h7.963a1.327,1.327,0,0,1,0,2.654H43.2V44.526h2.654a1.327,1.327,0,0,1,0,2.654H37.89a1.327,1.327,0,0,1,0-2.654h2.654V25.945ZM20.667,45.565l4.6-20.666a2.056,2.056,0,0,1,4.012,0l4.6,20.669a1.328,1.328,0,0,1-2.593.575l-1.541-6.924H24.8L23.259,46.14a1.327,1.327,0,0,1-2.592-.575Z" transform="translate(5.765 5.765)" fill="#ff6aa9"/>
    <path id="Path_236" data-name="Path 236" d="M60.991,48.618V43.887A2.9,2.9,0,0,0,58.1,41H48v2.887H58.1v4.732a2.887,2.887,0,1,0,2.887,0Z" transform="translate(17.122 14.701)" fill="#ff6aa9"/>
    <path id="Path_237" data-name="Path 237" d="M29.443,48V58.505a2.887,2.887,0,1,0,2.887,0V48Z" transform="translate(10.113 17.122)" fill="#ff6aa9"/>
    <path id="Path_238" data-name="Path 238" d="M10,4.887A2.878,2.878,0,0,0,15.372,6.33H20.1v10.1h2.887V6.33A2.9,2.9,0,0,0,20.1,3.443H15.372A2.878,2.878,0,0,0,10,4.887Z" transform="translate(3.308 0.443)" fill="#ff6aa9"/>
    <path id="Path_239" data-name="Path 239" d="M3.443,43.887v4.732a2.887,2.887,0,1,0,2.887,0V43.887h10.1V41H6.33A2.9,2.9,0,0,0,3.443,43.887Z" transform="translate(0.443 14.701)" fill="#ff6aa9"/>
    <path id="Path_240" data-name="Path 240" d="M3.887,33.774A2.877,2.877,0,0,0,6.372,32.33H16.878V29.443H6.372a2.882,2.882,0,1,0-2.486,4.33Z" transform="translate(0 10.113)" fill="#ff6aa9"/>
    <path id="Path_241" data-name="Path 241" d="M58.505,29.443H48V32.33H58.505a2.887,2.887,0,1,0,0-2.887Z" transform="translate(17.122 10.113)" fill="#ff6aa9"/>
    <path id="Path_242" data-name="Path 242" d="M3.443,15.372V20.1A2.9,2.9,0,0,0,6.33,22.991h10.1V20.1H6.33V15.372a2.887,2.887,0,1,0-2.887,0Z" transform="translate(0.443 3.308)" fill="#ff6aa9"/>
    <path id="Path_243" data-name="Path 243" d="M58.1,15.372V20.1H48v2.887H58.1A2.9,2.9,0,0,0,60.991,20.1V15.372a2.887,2.887,0,1,0-2.887,0Z" transform="translate(17.122 3.308)" fill="#ff6aa9"/>
    <path id="Path_244" data-name="Path 244" d="M5,24.443a1.448,1.448,0,0,0,1.443,1.443H15.1V23H6.443A1.448,1.448,0,0,0,5,24.443Z" transform="translate(1.774 8.294)" fill="#ff6aa9"/>
    <path id="Path_245" data-name="Path 245" d="M5,36.443a1.448,1.448,0,0,0,1.443,1.443H15.1V35H6.443A1.448,1.448,0,0,0,5,36.443Z" transform="translate(1.774 12.819)" fill="#ff6aa9"/>
    <path id="Path_246" data-name="Path 246" d="M10,59.547a2.878,2.878,0,0,0,5.372,1.443H20.1A2.9,2.9,0,0,0,22.991,58.1V48H20.1V58.1H15.372A2.878,2.878,0,0,0,10,59.547Z" transform="translate(3.308 17.122)" fill="#ff6aa9"/>
    <path id="Path_247" data-name="Path 247" d="M24.443,58.1a1.448,1.448,0,0,0,1.443-1.443V48H23v8.661A1.448,1.448,0,0,0,24.443,58.1Z" transform="translate(8.294 17.122)" fill="#ff6aa9"/>
    <path id="Path_248" data-name="Path 248" d="M36.443,58.1a1.448,1.448,0,0,0,1.443-1.443V48H35v8.661A1.448,1.448,0,0,0,36.443,58.1Z" transform="translate(12.819 17.122)" fill="#ff6aa9"/>
    <path id="Path_249" data-name="Path 249" d="M58.1,36.443A1.448,1.448,0,0,0,56.661,35H48v2.887h8.661A1.448,1.448,0,0,0,58.1,36.443Z" transform="translate(17.122 12.819)" fill="#ff6aa9"/>
    <path id="Path_250" data-name="Path 250" d="M58.1,24.443A1.448,1.448,0,0,0,56.661,23H48v2.887h8.661A1.448,1.448,0,0,0,58.1,24.443Z" transform="translate(17.122 8.294)" fill="#ff6aa9"/>
    <path id="Path_251" data-name="Path 251" d="M53.991,4.887a2.878,2.878,0,0,0-5.372-1.443H43.887A2.9,2.9,0,0,0,41,6.33v10.1h2.887V6.33h4.732a2.878,2.878,0,0,0,5.372-1.443Z" transform="translate(14.701 0.443)" fill="#ff6aa9"/>
    <path id="Path_252" data-name="Path 252" d="M35,6.443V15.1h2.887V6.443a1.443,1.443,0,1,0-2.887,0Z" transform="translate(12.819 1.774)" fill="#ff6aa9"/>
    <path id="Path_253" data-name="Path 253" d="M23,6.443V15.1h2.887V6.443a1.443,1.443,0,1,0-2.887,0Z" transform="translate(8.294 1.774)" fill="#ff6aa9"/>
  </g>
</svg>
