<svg xmlns="http://www.w3.org/2000/svg" width="82.437" height="80" viewBox="0 0 82.437 80">
  <g id="Group_369" data-name="Group 369" transform="translate(0 -7.194)">
    <g id="Group_368" data-name="Group 368" transform="translate(0 7.194)">
      <path id="Path_254" data-name="Path 254" d="M23.075,354.291a1.183,1.183,0,0,0-1.609-.423l-2.947,1.71v-3.4a1.168,1.168,0,0,0-2.337,0v3.4l-2.947-1.71a1.176,1.176,0,0,0-1.185,2.032l2.964,1.727-2.964,1.727a1.176,1.176,0,1,0,1.185,2.032l2.947-1.71v3.4a1.168,1.168,0,0,0,2.337,0v-3.4l2.947,1.71a1.176,1.176,0,1,0,1.185-2.032l-2.964-1.727,2.964-1.727A1.171,1.171,0,0,0,23.075,354.291Z" transform="translate(-9.528 -292.784)" fill="#ff6aa9"/>
      <path id="Path_255" data-name="Path 255" d="M143.128,360.863a1.183,1.183,0,0,0,1.609.423l2.947-1.71v3.4a1.168,1.168,0,1,0,2.337,0v-3.4l2.947,1.71a1.176,1.176,0,1,0,1.185-2.032l-2.964-1.727,2.964-1.727a1.176,1.176,0,0,0-1.185-2.032l-2.947,1.71v-3.4a1.168,1.168,0,1,0-2.337,0v3.4l-2.947-1.693a1.176,1.176,0,1,0-1.185,2.032l2.964,1.727-2.964,1.71A1.183,1.183,0,0,0,143.128,360.863Z" transform="translate(-118.759 -292.7)" fill="#ff6aa9"/>
      <path id="Path_256" data-name="Path 256" d="M131.5,457.7v2.066a.9.9,0,0,0,.9.9h13.869a.9.9,0,0,0,.9-.9V457.7a.9.9,0,0,0-.9-.9H132.4A.893.893,0,0,0,131.5,457.7Z" transform="translate(-109.231 -380.667)" fill="#ff6aa9"/>
      <path id="Path_257" data-name="Path 257" d="M169.953,26.485h-.1V21.878c0-8.01-6.554-14.818-14.547-14.682a14.342,14.342,0,0,0-14.072,14.31v.44a1.207,1.207,0,0,0,1.2,1.2h3.844a1.207,1.207,0,0,0,1.2-1.2v-.135a8.259,8.259,0,0,1,7.536-8.349,8.059,8.059,0,0,1,8.569,8.027v4.979H151.731v.017H140.775a3.778,3.778,0,0,0-3.675,3.759V51.073a3.78,3.78,0,0,0,3.776,3.776h29.059a3.78,3.78,0,0,0,3.776-3.776V30.261A3.755,3.755,0,0,0,169.953,26.485ZM157.658,41.607a.814.814,0,0,0-.373.762c.017,1.524.017,3.048,0,4.589h0a1.606,1.606,0,0,1-.864,1.541,1.789,1.789,0,0,1-2.676-1.541V42.352a.8.8,0,0,0-.339-.728,3.48,3.48,0,0,1-1.152-4.3,3.56,3.56,0,0,1,6.808,1.406A3.225,3.225,0,0,1,157.658,41.607Z" transform="translate(-113.883 -7.194)" fill="#ff6aa9"/>
      <path id="Path_258" data-name="Path 258" d="M262.9,457.7v2.066a.9.9,0,0,0,.9.9h13.869a.9.9,0,0,0,.9-.9V457.7a.9.9,0,0,0-.9-.9H263.8A.9.9,0,0,0,262.9,457.7Z" transform="translate(-218.379 -380.667)" fill="#ff6aa9"/>
      <path id="Path_259" data-name="Path 259" d="M274.528,360.863a1.183,1.183,0,0,0,1.609.423l2.947-1.71v3.4a1.168,1.168,0,1,0,2.337,0v-3.4l2.947,1.71a1.176,1.176,0,0,0,1.185-2.032l-2.964-1.727,2.964-1.727a1.176,1.176,0,0,0-1.185-2.032l-2.947,1.71v-3.4a1.168,1.168,0,1,0-2.337,0v3.4l-2.947-1.71a1.176,1.176,0,0,0-1.185,2.032l2.964,1.727-2.964,1.727A1.183,1.183,0,0,0,274.528,360.863Z" transform="translate(-227.907 -292.7)" fill="#ff6aa9"/>
      <path id="Path_260" data-name="Path 260" d="M409.067,456.806H395.2a.9.9,0,0,0-.9.9v2.066a.9.9,0,0,0,.9.9h13.869a.9.9,0,0,0,.9-.9V457.7A.9.9,0,0,0,409.067,456.806Z" transform="translate(-327.528 -380.667)" fill="#ff6aa9"/>
      <path id="Path_261" data-name="Path 261" d="M.9,460.667H14.767a.9.9,0,0,0,.9-.9V457.7a.9.9,0,0,0-.9-.9H.9a.9.9,0,0,0-.9.9v2.066A.9.9,0,0,0,.9,460.667Z" transform="translate(0 -380.667)" fill="#ff6aa9"/>
      <path id="Path_262" data-name="Path 262" d="M405.991,360.863a1.183,1.183,0,0,0,1.609.423l2.947-1.71v3.4a1.168,1.168,0,1,0,2.337,0v-3.4l2.947,1.71a1.176,1.176,0,1,0,1.185-2.032l-2.964-1.727,2.964-1.727a1.176,1.176,0,1,0-1.185-2.032l-2.947,1.71v-3.4a1.168,1.168,0,1,0-2.337,0v3.4l-2.947-1.71a1.176,1.176,0,1,0-1.185,2.032l2.963,1.727-2.963,1.727A1.168,1.168,0,0,0,405.991,360.863Z" transform="translate(-337.102 -292.7)" fill="#ff6aa9"/>
    </g>
  </g>
</svg>
