<svg xmlns="http://www.w3.org/2000/svg" width="79.884" height="80" viewBox="0 0 79.884 80">
  <g id="Group_371" data-name="Group 371" transform="translate(-0.37)">
    <path id="Path_281" data-name="Path 281" d="M49.786,0H2.714A2.344,2.344,0,0,0,.37,2.344V77.656A2.344,2.344,0,0,0,2.714,80H35.879V68.281H30.946a2.388,2.388,0,0,1-2.408-2.229,2.345,2.345,0,0,1,2.341-2.459h5V58.906H12.04a2.388,2.388,0,0,1-2.408-2.229,2.345,2.345,0,0,1,2.341-2.459H35.879V49.531H12.04A2.388,2.388,0,0,1,9.632,47.3a2.345,2.345,0,0,1,2.341-2.459H35.879V30.625a7.031,7.031,0,0,1,7.031-7.031h9.219V2.344A2.344,2.344,0,0,0,49.786,0ZM12.04,63.594H21.5a2.344,2.344,0,0,1,0,4.688H11.973a2.344,2.344,0,0,1-2.341-2.459A2.388,2.388,0,0,1,12.04,63.594ZM32.664,27.731a7.2,7.2,0,0,1-5.691,5.578v1.153a2.345,2.345,0,0,1-2.344,2.344c-.038,0-.077,0-.114,0a2.388,2.388,0,0,1-2.23-2.408V33.18a10.409,10.409,0,0,1-5.177-3.067,2.343,2.343,0,0,1,.181-3.327,2.373,2.373,0,0,1,3.3.191,6.023,6.023,0,0,0,4.036,1.845c.141.009.281.014.423.014a2.892,2.892,0,0,0,3-1.928c.227-1.272-1.673-2.078-2.261-2.3-.4-.145-.783-.292-1.159-.438-2.259-.873-4.077-1.681-4.166-1.722a5.726,5.726,0,0,1-2.9-5.9,6.4,6.4,0,0,1,4.725-5.183V10.156a2.344,2.344,0,0,1,2.344-2.344c.038,0,.075,0,.114,0a2.387,2.387,0,0,1,2.23,2.406v1.07A11.454,11.454,0,0,1,31.332,13.4a2.221,2.221,0,0,1,.414,3.2,2.293,2.293,0,0,1-3.431.389,6.327,6.327,0,0,0-3.686-1.275,4.183,4.183,0,0,0-1.094.173A1.672,1.672,0,0,0,22.2,17.223a1.23,1.23,0,0,0,.069.62.956.956,0,0,0,.511.508c.394.172,1.048.45,1.848.778s1.781.717,2.781,1.086c4.563,1.683,5.7,4.986,5.253,7.516Z" fill="#ff6aa9"/>
    <path id="Path_282" data-name="Path 282" d="M297.318,183.344v7.031H257.63v-7.031A2.344,2.344,0,0,1,259.974,181h35A2.344,2.344,0,0,1,297.318,183.344Z" transform="translate(-217.063 -152.719)" fill="#ff6aa9"/>
    <path id="Path_283" data-name="Path 283" d="M257.63,271v37.656h37.344a2.344,2.344,0,0,0,2.344-2.344V271Zm11.555,30.528a2.344,2.344,0,1,1,2.02-2.02A2.346,2.346,0,0,1,269.185,301.528Zm0-9.375a2.344,2.344,0,1,1,2.02-2.02A2.346,2.346,0,0,1,269.185,292.153Zm0-9.375a2.344,2.344,0,1,1,2.02-2.02A2.346,2.346,0,0,1,269.185,282.777Zm9.375,18.75a2.344,2.344,0,1,1,2.02-2.02A2.346,2.346,0,0,1,278.56,301.528Zm0-9.375a2.344,2.344,0,1,1,2.02-2.02A2.346,2.346,0,0,1,278.56,292.153Zm0-9.375a2.344,2.344,0,1,1,2.02-2.02A2.346,2.346,0,0,1,278.56,282.777Zm9.375,18.75a2.344,2.344,0,1,1,2.02-2.02A2.346,2.346,0,0,1,287.935,301.528Zm0-9.375a2.344,2.344,0,1,1,2.02-2.02A2.346,2.346,0,0,1,287.935,292.153Zm0-9.375a2.344,2.344,0,1,1,2.02-2.02A2.346,2.346,0,0,1,287.935,282.777Z" transform="translate(-217.063 -228.656)" fill="#ff6aa9"/>
  </g>
</svg>
