<svg id="Group_4" data-name="Group 4" xmlns="http://www.w3.org/2000/svg" xmlns:xlink="http://www.w3.org/1999/xlink" width="73" height="73" viewBox="0 0 73 73">
  <defs>
    <linearGradient id="linear-gradient" x1="0.5" x2="0.5" y2="1" gradientUnits="objectBoundingBox">
      <stop offset="0" stop-color="#e7439a"/>
      <stop offset="1" stop-color="#f55c56"/>
    </linearGradient>
  </defs>
  <path id="Path_28" data-name="Path 28" d="M8.505,52.112,5.024,56.439,16.7,68.112l4.332-3.542a31.828,31.828,0,0,0,6.717,2.77l.6,5.66h10.3V64.3H47.73a6.416,6.416,0,1,0,0-4.277H38.639V55.748H36.5a19.248,19.248,0,0,1,0-38.5h2.139V12.975H47.73a6.416,6.416,0,1,0,0-4.277H38.639V0H28.148l-.556,5.706a31.742,31.742,0,0,0-6.7,2.8L16.561,5.024,4.884,16.7,8.43,21.028a31.855,31.855,0,0,0-2.769,6.717L0,28.342v16.51l5.706.556A31.73,31.73,0,0,0,8.505,52.112Zm0,0" fill="url(#linear-gradient)"/>
  <path id="Path_29" data-name="Path 29" d="M260.361,211a6.406,6.406,0,0,0-6.022,4.277H226v4.277h28.339A6.4,6.4,0,1,0,260.361,211Zm0,0" transform="translate(-193.777 -180.916)" fill="url(#linear-gradient)"/>
  <path id="Path_30" data-name="Path 30" d="M196.547,91.018a6.423,6.423,0,0,0-6.908,6.4,6.285,6.285,0,0,0,.079.777l-7,3.5H164.2a13.2,13.2,0,0,0-13.2,13.2,12.463,12.463,0,0,0,12.463,12.463h19.254l7,3.5a6.285,6.285,0,0,0-.079.777,6.448,6.448,0,1,0,1.975-4.612l-7.885-3.943h-19.9a8.555,8.555,0,0,1,0-17.109h19.9l7.885-3.943a6.411,6.411,0,1,0,4.933-11.01Zm0,0" transform="translate(-129.471 -78.025)" fill="url(#linear-gradient)"/>
</svg>
