<svg id="Group_5" data-name="Group 5" xmlns="http://www.w3.org/2000/svg" xmlns:xlink="http://www.w3.org/1999/xlink" width="73" height="73" viewBox="0 0 73 73">
  <defs>
    <linearGradient id="linear-gradient" x1="0.5" x2="0.5" y2="1" gradientUnits="objectBoundingBox">
      <stop offset="0" stop-color="#e7439a"/>
      <stop offset="1" stop-color="#f55c56"/>
    </linearGradient>
  </defs>
  <path id="Path_33" data-name="Path 33" d="M13.375,9.795A2.126,2.126,0,0,1,11.25,7.67V2.125a2.125,2.125,0,0,1,4.25,0V7.67A2.126,2.126,0,0,1,13.375,9.795Z" transform="translate(23.125)" fill="url(#linear-gradient)"/>
  <path id="Path_34" data-name="Path 34" d="M19.946,11.468a2.126,2.126,0,0,1-1.5-3.629l3.921-3.921a2.126,2.126,0,0,1,3.006,3.006L21.45,10.844A2.131,2.131,0,0,1,19.946,11.468Z" transform="translate(37.672 6.039)" fill="url(#linear-gradient)"/>
  <path id="Path_35" data-name="Path 35" d="M28.213,15.5H22.668a2.125,2.125,0,0,1,0-4.25h5.545a2.125,2.125,0,1,1,0,4.25Z" transform="translate(42.662 23.125)" fill="url(#linear-gradient)"/>
  <path id="Path_36" data-name="Path 36" d="M23.867,25.994a2.108,2.108,0,0,1-1.5-.623l-3.921-3.921a2.126,2.126,0,0,1,3.006-3.006l3.921,3.921a2.126,2.126,0,0,1-1.5,3.63Z" transform="translate(37.672 37.67)" fill="url(#linear-gradient)"/>
  <path id="Path_37" data-name="Path 37" d="M5.42,25.994a2.126,2.126,0,0,1-1.5-3.63l3.921-3.921a2.126,2.126,0,0,1,3.006,3.006L6.924,25.37A2.119,2.119,0,0,1,5.42,25.994Z" transform="translate(6.041 37.67)" fill="url(#linear-gradient)"/>
  <path id="Path_38" data-name="Path 38" d="M7.67,15.5H2.125a2.125,2.125,0,0,1,0-4.25H7.67a2.125,2.125,0,1,1,0,4.25Z" transform="translate(0 23.125)" fill="url(#linear-gradient)"/>
  <path id="Path_39" data-name="Path 39" d="M9.341,11.468a2.108,2.108,0,0,1-1.5-.623L3.918,6.923A2.126,2.126,0,0,1,6.924,3.917l3.921,3.921a2.126,2.126,0,0,1-1.5,3.629Z" transform="translate(6.041 6.039)" fill="url(#linear-gradient)"/>
  <path id="Path_40" data-name="Path 40" d="M26,21v3.542A4.982,4.982,0,0,1,21.042,29.5H13.958C11.578,29.5,9,27.687,9,23.72V21Z" transform="translate(19 43.5)" fill="url(#linear-gradient)"/>
  <path id="Path_41" data-name="Path 41" d="M41.406,9.417A24.577,24.577,0,0,0,22.55,5.451C14.1,7.009,7.236,13.129,5.481,20.637,3.695,28.344,6.949,35.994,13.9,40.669a8.45,8.45,0,0,1,3.637,5.412v.028a.606.606,0,0,1,.223-.028H36.907a.319.319,0,0,1,.16.028v-.028a9.4,9.4,0,0,1,4.084-5.667,19.073,19.073,0,0,0,8.518-15.583A18.994,18.994,0,0,0,41.406,9.417ZM39.3,26.247a2.288,2.288,0,0,1-2.393-2.125c0-4.307-3.924-7.792-8.774-7.792a2.288,2.288,0,0,1-2.393-2.125,2.288,2.288,0,0,1,2.393-2.125c7.466,0,13.559,5.412,13.559,12.042A2.288,2.288,0,0,1,39.3,26.247Z" transform="translate(9.164 11.804)" fill="url(#linear-gradient)"/>
  <path id="Path_42" data-name="Path 42" d="M8.93,19.5h.2a.482.482,0,0,0-.2.028Z" transform="translate(18.238 40.75)" fill="url(#linear-gradient)"/>
  <path id="Path_43" data-name="Path 43" d="M15.142,19.5v.028A.255.255,0,0,0,15,19.5Z" transform="translate(30.632 40.75)" fill="url(#linear-gradient)"/>
</svg>
