<svg xmlns="http://www.w3.org/2000/svg" xmlns:xlink="http://www.w3.org/1999/xlink" width="72.701" height="73" viewBox="0 0 72.701 73">
  <defs>
    <linearGradient id="linear-gradient" x1="0.5" x2="0.5" y2="1" gradientUnits="objectBoundingBox">
      <stop offset="0" stop-color="#e7439a"/>
      <stop offset="1" stop-color="#f55c56"/>
    </linearGradient>
  </defs>
  <g id="Glyph" transform="translate(-0.239)">
    <g id="Glyph-2" data-name="Glyph" transform="translate(0.239 0)">
      <path id="Path_23" data-name="Path 23" d="M66.753,69.561A13.225,13.225,0,0,1,59.236,60.4a.874.874,0,0,0-.285-.468,15.7,15.7,0,0,1-3.485-4.306,3.8,3.8,0,0,1,3.941-5.618,5.915,5.915,0,0,0,1.392.086.855.855,0,0,0,.639-.348,12.8,12.8,0,0,1,7.4-4.9.849.849,0,0,0,.65-.827V37.772a.859.859,0,0,0-.736-.85c-.5-.074-.935-.154-1.34-.251a14.546,14.546,0,0,1-4.745-2.1.81.81,0,0,0-.542-.148,17.387,17.387,0,0,1-6.194-.764,3.974,3.974,0,0,1-1.095-7.066,7.279,7.279,0,0,0,1.426-1.266.835.835,0,0,0,.2-.684,14.546,14.546,0,0,1,1.106-7.962A14.378,14.378,0,0,1,68.737,8.224a.855.855,0,0,0,.73-.89A7.682,7.682,0,0,0,61.785,0H32.7A7.711,7.711,0,0,0,25,7.7V20.417a.863.863,0,0,0,.947.85,19.4,19.4,0,0,1,1.968-.108A18.79,18.79,0,0,1,45.007,32.183a.859.859,0,0,0,.519.468,11,11,0,0,0,3.4.548,4.462,4.462,0,0,1,3.445,7.271,22.071,22.071,0,0,1-6.484,5.561.825.825,0,0,0-.394.451,18.75,18.75,0,0,1-17.611,12.2,19.111,19.111,0,0,1-1.939-.114.864.864,0,0,0-.947.85V65.3A7.711,7.711,0,0,0,32.7,73H61.785a7.66,7.66,0,0,0,5.2-2.031.855.855,0,0,0-.229-1.408ZM41.881,6.273A3.624,3.624,0,0,1,38.75,4.266L37.381,1.711H57.109L55.734,4.266A3.624,3.624,0,0,1,52.6,6.273ZM53.23,65.586H41.254a.855.855,0,1,1,0-1.711H53.23a.855.855,0,1,1,0,1.711Z" transform="translate(-10.878 0)" fill="url(#linear-gradient)"/>
      <path id="Path_24" data-name="Path 24" d="M105.483,101.281h2.26L108.354,99h-2.26Z" transform="translate(-45.461 -42.539)" fill="url(#linear-gradient)"/>
      <path id="Path_25" data-name="Path 25" d="M91.538,81.792a11.2,11.2,0,0,0-5.373,4.54.254.254,0,0,1-.171.114,8.216,8.216,0,0,1-3.019.046,2.079,2.079,0,0,0-2.155,3.077,13.453,13.453,0,0,0,3.707,4.325.245.245,0,0,1,.1.159,11.77,11.77,0,0,0,11.384,9.793,11.4,11.4,0,0,0,9.239-17.887,11.52,11.52,0,0,0-13.713-4.167Zm9.514,9.467H99.411L98.8,93.54h1.681a.855.855,0,0,1,0,1.711h-2.14l-.547,2.04a.856.856,0,1,1-1.654-.443l.428-1.6h-2.26l-.553,2.065a.856.856,0,1,1-1.654-.443l.435-1.622h-1.18a.855.855,0,0,1,0-1.711H93l.611-2.281H91.927a.855.855,0,0,1,0-1.711h2.14l.547-2.04a.856.856,0,0,1,1.654.443l-.428,1.6H98.1l.553-2.065a.856.856,0,0,1,1.654.443l-.437,1.622h1.182a.855.855,0,0,1,0,1.711Z" transform="translate(-34.746 -34.798)" fill="url(#linear-gradient)"/>
      <path id="Path_26" data-name="Path 26" d="M81.6,24.792a12.753,12.753,0,0,0-.827,7.87.417.417,0,0,1-.07.327,9.377,9.377,0,0,1-2.439,2.443,2.252,2.252,0,0,0,.617,4.006,14.849,14.849,0,0,0,6.322.619.371.371,0,0,1,.276.07,13.027,13.027,0,0,0,7.83,2.663,12.866,12.866,0,0,0,11.342-18.631c-4.866-9.451-18.738-9.131-23.051.632ZM94.162,35.728a1.587,1.587,0,0,1-1.566,0c-3.346-1.9-5.247-4.264-5.166-7.257A3.357,3.357,0,0,1,90.772,25.1a3.318,3.318,0,0,1,2.607,1.264A3.317,3.317,0,0,1,95.987,25.1a3.357,3.357,0,0,1,3.341,3.372C99.412,31.464,97.508,33.824,94.162,35.728Z" transform="translate(-33.347 -7.419)" fill="url(#linear-gradient)"/>
      <path id="Path_27" data-name="Path 27" d="M33.466,62.5a.811.811,0,0,1,.414-.467,19.853,19.853,0,0,0,6.533-5.43,2.749,2.749,0,0,0-2.121-4.472,13.034,13.034,0,0,1-4.712-.908.881.881,0,0,1-.5-.485,17.02,17.02,0,0,0-6.8-8.073C14.221,35.105-1.241,45.136.352,59.205,1.294,67.52,8.986,74.389,17.28,74.216A17.183,17.183,0,0,0,33.466,62.5ZM13.22,64.4a1.693,1.693,0,0,1-.855.232H10.083a1.711,1.711,0,0,1-1.711-1.711V54.362a1.711,1.711,0,0,1,1.711-1.711h2.281a1.706,1.706,0,0,1,.855.228Zm1.711-.767V53.383c1.676-1.555,2.753-4.72,3.471-6.212,1.264-2.628,3.81.9,3.187,2.795-.215.657-.671,2.68-.671,2.68a5.133,5.133,0,0,1,5.133,5.133V59.49a5.133,5.133,0,0,1-5.133,5.133H17.734a3.421,3.421,0,0,1-1.529-.361Z" transform="translate(-0.239 -17.219)" fill="url(#linear-gradient)"/>
    </g>
  </g>
</svg>
