<svg xmlns="http://www.w3.org/2000/svg" xmlns:xlink="http://www.w3.org/1999/xlink" width="81.781" height="73" viewBox="0 0 81.781 73">
  <defs>
    <linearGradient id="linear-gradient" x1="0.5" x2="0.5" y2="1" gradientUnits="objectBoundingBox">
      <stop offset="0" stop-color="#e7439a"/>
      <stop offset="1" stop-color="#f55c56"/>
    </linearGradient>
  </defs>
  <path id="Path_31" data-name="Path 31" d="M17.966,43.737a6.771,6.771,0,0,0-1.422,7.488H31.159V50.165A8.383,8.383,0,0,0,28.7,44.219c-2.87-2.87-7.723-3.488-10.73-.481Zm7.618,16.287.493,2.572H36.749l.493-2.572Zm14.429,0h2.569a.745.745,0,0,1,.739.739V105.1a.745.745,0,0,1-.739.739H20.245a.745.745,0,0,1-.739-.739V60.763a.745.745,0,0,1,.739-.739h2.569l.787,4.109a1.363,1.363,0,0,0,1.352,1.188l12.921,0a1.361,1.361,0,0,0,1.336-1.1ZM28.293,101.61h6.24a1.363,1.363,0,0,0,0-2.726h-6.24A1.363,1.363,0,0,0,28.293,101.61Zm43.113,3.675H49.872a10.032,10.032,0,0,1-3.235,9.347l44.358.123a6.779,6.779,0,0,0,6.206-9.47H91.04a15.895,15.895,0,0,1-19.634,0Zm-5.583-8.556H46.046V105.1a3.472,3.472,0,0,1-3.465,3.465H34.155a9.145,9.145,0,0,0,2.068,3.967c2.594,2.845,6.01,2.654,8.656.007a7.641,7.641,0,0,0,2.428-4.695c0-1.991-.128-2.18-.408-2.594-.14-.208-.283-.43-.408-.646a1.36,1.36,0,0,1,1.177-2.041l21.022,0A15.841,15.841,0,0,1,65.824,96.729Zm.186-8.556H46.046V94h19.33A15.979,15.979,0,0,1,66.01,88.174Zm2.046,4.612a13.167,13.167,0,1,1,3.856,9.311A13.167,13.167,0,0,1,68.056,92.785ZM79.86,76.95a15.914,15.914,0,0,0-12.738,8.5H46.046v-5.83h25.27a1.363,1.363,0,0,0,0-2.726H46.046v-5.83h25.27a1.363,1.363,0,0,0,0-2.726H46.046v-5.83h25.27a1.363,1.363,0,1,0,0-2.726H45.9A3.476,3.476,0,0,0,42.581,57.3h-8.7V50.165a10.985,10.985,0,0,0-3.816-8.391l43.134.134c4.119.013,6.658,4.566,6.658,8.257V76.95Zm6.9,10.894a5.684,5.684,0,0,0-4.171-3.425v-.829a1.363,1.363,0,0,0-2.726,0v.849a4.937,4.937,0,0,0-4.171,4.992c.145,2.991,2.725,4.216,5.329,4.643,1.4.23,3.467.714,3.508,2.478.035,1.475-1.959,1.987-3.145,2.015a3.3,3.3,0,0,1-3.5-2.2,1.36,1.36,0,0,0-2.641.649,5.647,5.647,0,0,0,4.619,4.132v.829a1.363,1.363,0,0,0,2.726,0v-.8c2.443-.411,4.72-1.963,4.655-4.689-.078-3.326-2.91-4.625-5.786-5.1-1.174-.193-2.98-.624-3.051-2.088a2.3,2.3,0,0,1,2.1-2.227A3.226,3.226,0,0,1,84.244,88.9a1.363,1.363,0,0,0,2.513-1.054Z" transform="translate(-15.983 -41.755)" fill-rule="evenodd" fill="url(#linear-gradient)"/>
</svg>
